<svg width="210" height="210" viewBox="0 0 210 210" fill="none" xmlns="http://www.w3.org/2000/svg">
<rect width="209.688" height="209.688" rx="35" fill="#2A5A3A"/>
<path d="M76.579 146.481C72.3123 146.481 69.155 145.542 67.107 143.665C65.1443 141.787 63.8643 139.483 63.267 136.753C62.6696 134.022 62.371 131.334 62.371 128.689C62.371 122.374 64.035 116.571 67.363 111.281C70.7763 105.905 75.2136 101.766 80.675 98.8647C75.2136 96.134 70.7763 92.678 67.363 88.4967C64.035 84.3154 62.371 79.11 62.371 72.8807C62.371 70.2354 62.6696 67.5474 63.267 64.8167C63.8643 62.086 65.1443 59.782 67.107 57.9047C69.155 56.0274 72.3123 55.0887 76.579 55.0887H136.739C141.774 55.0887 145.102 55.942 146.723 57.6487C148.43 59.27 149.283 62.598 149.283 67.6327V133.937C149.283 138.886 148.43 142.214 146.723 143.921C145.102 145.627 141.774 146.481 136.739 146.481H76.579ZM102.563 93.6167V65.2007H80.547C77.5603 65.2007 75.683 66.0967 74.915 67.8887C74.2323 69.5954 73.891 71.942 73.891 74.9287C73.891 80.7314 76.4083 85.2967 81.443 88.6247C86.4776 91.8674 93.5176 93.5314 102.563 93.6167ZM113.955 93.6167H137.763V71.4727C137.763 68.998 137.336 67.334 136.483 66.4807C135.63 65.6274 133.966 65.2007 131.491 65.2007H113.955V93.6167ZM80.547 136.369H102.563V103.729C97.0163 103.729 92.067 104.667 87.715 106.545C83.363 108.422 79.9496 111.067 77.475 114.481C75.0856 117.809 73.891 121.862 73.891 126.641C73.891 129.713 74.2323 132.102 74.915 133.809C75.683 135.515 77.5603 136.369 80.547 136.369ZM113.955 136.369H131.491C133.966 136.369 135.63 135.942 136.483 135.089C137.336 134.235 137.763 132.571 137.763 130.097V103.729H113.955V136.369Z" fill="white"/>
</svg>
