<svg width="122" height="122" viewBox="0 0 122 122" fill="none" xmlns="http://www.w3.org/2000/svg">
<rect width="59" height="59" rx="9" fill="#3D8A5A"/>
<rect y="63" width="59" height="59" rx="9" fill="#2A5A3A"/>
<rect x="63" y="63" width="59" height="59" rx="9" fill="#3D8A5A"/>
<rect x="63" width="59" height="59" rx="9" fill="#2A5A3A"/>
<path d="M86.78 38.57C85.66 38.57 84.65 38.35 83.75 37.91C82.87 37.47 82.18 36.85 81.68 36.05C81.18 35.25 80.93 34.3 80.93 33.2C80.93 32.32 81.11 31.53 81.47 30.83C81.83 30.11 82.35 29.54 83.03 29.12C83.71 28.7 84.53 28.49 85.49 28.49C86.55 28.49 87.4 28.74 88.04 29.24C88.68 29.74 89 30.42 89 31.28C89 31.6 88.97 31.92 88.91 32.24C88.85 32.56 88.75 32.83 88.61 33.05L86.57 32.87C86.61 32.71 86.65 32.55 86.69 32.39C86.73 32.21 86.75 32.05 86.75 31.91C86.75 31.47 86.63 31.14 86.39 30.92C86.15 30.7 85.82 30.59 85.4 30.59C84.78 30.59 84.26 30.81 83.84 31.25C83.44 31.67 83.24 32.29 83.24 33.11C83.24 34.01 83.55 34.75 84.17 35.33C84.79 35.91 85.74 36.2 87.02 36.2C88.4 36.2 89.41 35.85 90.05 35.15C90.69 34.45 91.06 33.52 91.16 32.36H93.44C93.54 33.7 93.94 34.68 94.64 35.3C95.34 35.92 96.21 36.23 97.25 36.23C98.05 36.23 98.68 36.08 99.14 35.78C99.6 35.48 99.93 35.05 100.13 34.49C100.33 33.93 100.43 33.26 100.43 32.48C100.43 31.56 100.24 30.62 99.86 29.66C99.48 28.7 98.81 27.68 97.85 26.6L99.98 25.16C100.9 26.18 101.6 27.27 102.08 28.43C102.58 29.57 102.83 30.85 102.83 32.27C102.83 33.61 102.61 34.73 102.17 35.63C101.73 36.51 101.16 37.18 100.46 37.64C100.16 37.84 99.84 38.01 99.5 38.15C99.18 38.29 98.85 38.4 98.51 38.48C98.17 38.54 97.82 38.57 97.46 38.57C96.4 38.57 95.54 38.44 94.88 38.18C94.24 37.92 93.69 37.54 93.23 37.04C92.79 36.54 92.34 35.93 91.88 35.21L92.81 35.06C92.29 36.02 91.73 36.75 91.13 37.25C90.55 37.75 89.9 38.1 89.18 38.3C88.48 38.48 87.68 38.57 86.78 38.57ZM92.03 29.3C91.55 29.3 91.14 29.13 90.8 28.79C90.48 28.45 90.32 28.04 90.32 27.56C90.32 27.04 90.48 26.61 90.8 26.27C91.14 25.93 91.55 25.76 92.03 25.76C92.53 25.76 92.95 25.93 93.29 26.27C93.63 26.61 93.8 27.04 93.8 27.56C93.8 28.04 93.63 28.45 93.29 28.79C92.95 29.13 92.53 29.3 92.03 29.3ZM100.76 39.86L99.11 37.43L98.78 36.89L94.22 30.29L96.23 29.03L100.79 35.81L101.21 36.26L102.8 38.57L100.76 39.86ZM80.93 23.99V21.68H96.53C97.61 21.68 98.37 21.63 98.81 21.53C99.25 21.43 99.57 21.3 99.77 21.14C100.03 20.94 100.2 20.72 100.28 20.48C100.38 20.22 100.43 19.95 100.43 19.67C100.43 19.01 100.27 18.37 99.95 17.75C99.63 17.11 99.14 16.46 98.48 15.8L100.43 14.51C101.37 15.55 102.01 16.49 102.35 17.33C102.69 18.15 102.86 18.99 102.86 19.85C102.86 20.23 102.78 20.7 102.62 21.26C102.46 21.8 102.13 22.29 101.63 22.73C101.13 23.17 100.53 23.49 99.83 23.69C99.15 23.89 98.23 23.99 97.07 23.99H80.93Z" fill="white"/>
<path d="M29.16 17.24C29.08 17.42 29.01 17.64 28.95 17.9C28.91 18.14 28.86 18.37 28.8 18.59C28.64 19.41 28.48 20.45 28.32 21.71C28.16 22.97 28.03 24.32 27.93 25.76C27.83 27.18 27.78 28.58 27.78 29.96C27.78 31.24 27.86 32.49 28.02 33.71C28.2 34.93 28.42 36.1 28.68 37.22C28.96 38.32 29.25 39.34 29.55 40.28L27.39 40.94C27.09 40.04 26.81 39 26.55 37.82C26.29 36.62 26.08 35.37 25.92 34.07C25.76 32.75 25.68 31.46 25.68 30.2C25.68 29.16 25.71 28.1 25.77 27.02C25.85 25.94 25.94 24.89 26.04 23.87C26.14 22.83 26.23 21.86 26.31 20.96C26.41 20.06 26.5 19.28 26.58 18.62C26.6 18.36 26.62 18.1 26.64 17.84C26.66 17.58 26.66 17.36 26.64 17.18L29.16 17.24ZM24.3 20.96C26.06 20.96 27.8 20.91 29.52 20.81C31.24 20.71 32.89 20.56 34.47 20.36C36.07 20.16 37.57 19.9 38.97 19.58L39 21.8C37.92 21.98 36.75 22.15 35.49 22.31C34.25 22.45 32.98 22.58 31.68 22.7C30.38 22.8 29.1 22.88 27.84 22.94C26.58 23 25.39 23.03 24.27 23.03C23.85 23.03 23.34 23.02 22.74 23C22.14 22.96 21.54 22.93 20.94 22.91C20.34 22.87 19.83 22.84 19.41 22.82L19.35 20.57C19.71 20.63 20.2 20.69 20.82 20.75C21.44 20.81 22.07 20.86 22.71 20.9C23.35 20.94 23.88 20.96 24.3 20.96ZM36.81 24.47C36.75 24.59 36.68 24.76 36.6 24.98C36.54 25.18 36.47 25.39 36.39 25.61C36.33 25.81 36.27 26 36.21 26.18C35.61 28.02 34.89 29.71 34.05 31.25C33.21 32.77 32.3 34.13 31.32 35.33C30.34 36.51 29.33 37.5 28.29 38.3C27.31 39.04 26.25 39.66 25.11 40.16C23.97 40.66 22.87 40.91 21.81 40.91C21.17 40.91 20.58 40.77 20.04 40.49C19.5 40.21 19.07 39.79 18.75 39.23C18.43 38.67 18.27 37.97 18.27 37.13C18.27 36.11 18.49 35.1 18.93 34.1C19.37 33.08 19.97 32.12 20.73 31.22C21.51 30.32 22.39 29.52 23.37 28.82C24.37 28.1 25.43 27.52 26.55 27.08C27.53 26.72 28.59 26.43 29.73 26.21C30.89 25.99 31.95 25.88 32.91 25.88C34.81 25.88 36.45 26.21 37.83 26.87C39.21 27.53 40.27 28.43 41.01 29.57C41.77 30.69 42.15 31.95 42.15 33.35C42.15 34.43 41.96 35.46 41.58 36.44C41.22 37.42 40.64 38.32 39.84 39.14C39.06 39.94 38.05 40.63 36.81 41.21C35.57 41.79 34.08 42.22 32.34 42.5L31.05 40.49C32.87 40.31 34.43 39.89 35.73 39.23C37.03 38.57 38.04 37.73 38.76 36.71C39.48 35.69 39.84 34.53 39.84 33.23C39.84 32.25 39.57 31.35 39.03 30.53C38.49 29.71 37.7 29.05 36.66 28.55C35.64 28.03 34.38 27.77 32.88 27.77C31.62 27.77 30.45 27.92 29.37 28.22C28.31 28.52 27.4 28.84 26.64 29.18C25.52 29.68 24.49 30.35 23.55 31.19C22.63 32.03 21.9 32.94 21.36 33.92C20.82 34.88 20.55 35.82 20.55 36.74C20.55 37.36 20.69 37.83 20.97 38.15C21.27 38.45 21.7 38.6 22.26 38.6C23 38.6 23.83 38.39 24.75 37.97C25.69 37.55 26.65 36.91 27.63 36.05C28.97 34.89 30.21 33.47 31.35 31.79C32.51 30.11 33.43 28.05 34.11 25.61C34.15 25.45 34.19 25.27 34.23 25.07C34.27 24.87 34.31 24.66 34.35 24.44C34.41 24.22 34.44 24.03 34.44 23.87L36.81 24.47Z" fill="white"/>
<path d="M22.67 104C21.67 104 20.93 103.78 20.45 103.34C19.99 102.9 19.69 102.36 19.55 101.72C19.41 101.08 19.34 100.45 19.34 99.83C19.34 98.35 19.73 96.99 20.51 95.75C21.31 94.49 22.35 93.52 23.63 92.84C22.35 92.2 21.31 91.39 20.51 90.41C19.73 89.43 19.34 88.21 19.34 86.75C19.34 86.13 19.41 85.5 19.55 84.86C19.69 84.22 19.99 83.68 20.45 83.24C20.93 82.8 21.67 82.58 22.67 82.58H36.77C37.95 82.58 38.73 82.78 39.11 83.18C39.51 83.56 39.71 84.34 39.71 85.52V101.06C39.71 102.22 39.51 103 39.11 103.4C38.73 103.8 37.95 104 36.77 104H22.67ZM28.76 91.61V84.95H23.6C22.9 84.95 22.46 85.16 22.28 85.58C22.12 85.98 22.04 86.53 22.04 87.23C22.04 88.59 22.63 89.66 23.81 90.44C24.99 91.2 26.64 91.59 28.76 91.61ZM31.43 91.61H37.01V86.42C37.01 85.84 36.91 85.45 36.71 85.25C36.51 85.05 36.12 84.95 35.54 84.95H31.43V91.61ZM23.6 101.63H28.76V93.98C27.46 93.98 26.3 94.2 25.28 94.64C24.26 95.08 23.46 95.7 22.88 96.5C22.32 97.28 22.04 98.23 22.04 99.35C22.04 100.07 22.12 100.63 22.28 101.03C22.46 101.43 22.9 101.63 23.6 101.63ZM31.43 101.63H35.54C36.12 101.63 36.51 101.53 36.71 101.33C36.91 101.13 37.01 100.74 37.01 100.16V93.98H31.43V101.63Z" fill="white"/>
<path d="M81.9 104.03C81.9 103.55 81.94 103.04 82.02 102.5C82.12 101.94 82.26 101.35 82.44 100.73C82.64 100.09 82.88 99.42 83.16 98.72L85.32 99.56C85.12 100.12 84.94 100.65 84.78 101.15C84.64 101.65 84.53 102.12 84.45 102.56C84.39 103 84.36 103.42 84.36 103.82C84.36 104.6 84.52 105.28 84.84 105.86C85.18 106.44 85.65 106.92 86.25 107.3C86.85 107.7 87.55 108 88.35 108.2C89.15 108.4 90.01 108.5 90.93 108.5C92.37 108.5 93.63 108.34 94.71 108.02C95.79 107.72 96.69 107.33 97.41 106.85C98.13 106.37 98.66 105.87 99 105.35C99.36 104.83 99.54 104.37 99.54 103.97C99.54 103.69 99.37 103.44 99.03 103.22C98.69 103 98.25 102.79 97.71 102.59C97.17 102.39 96.6 102.18 96 101.96C95.4 101.72 94.83 101.44 94.29 101.12C93.75 100.8 93.31 100.42 92.97 99.98C92.63 99.52 92.46 98.98 92.46 98.36C92.46 97.54 92.66 96.73 93.06 95.93C93.48 95.11 94.04 94.36 94.74 93.68C95.46 93 96.26 92.46 97.14 92.06C98.02 91.64 98.93 91.43 99.87 91.43C100.71 91.43 101.43 91.55 102.03 91.79C102.63 92.01 103.06 92.22 103.32 92.42L102.33 94.55C101.99 94.39 101.61 94.24 101.19 94.1C100.77 93.96 100.33 93.89 99.87 93.89C99.29 93.89 98.7 94.01 98.1 94.25C97.52 94.49 96.98 94.81 96.48 95.21C96 95.61 95.61 96.05 95.31 96.53C95.01 97.01 94.86 97.49 94.86 97.97C94.86 98.31 95.03 98.62 95.37 98.9C95.73 99.18 96.19 99.44 96.75 99.68C97.31 99.92 97.9 100.17 98.52 100.43C99.16 100.67 99.76 100.94 100.32 101.24C100.88 101.52 101.33 101.85 101.67 102.23C102.03 102.61 102.21 103.06 102.21 103.58C102.21 104.32 101.96 105.12 101.46 105.98C100.96 106.84 100.22 107.64 99.24 108.38C98.26 109.14 97.06 109.76 95.64 110.24C94.24 110.72 92.62 110.96 90.78 110.96C89.52 110.96 88.35 110.82 87.27 110.54C86.21 110.26 85.27 109.83 84.45 109.25C83.65 108.69 83.02 107.97 82.56 107.09C82.12 106.23 81.9 105.21 81.9 104.03ZM93.84 116.63C93.42 116.63 93.06 116.48 92.76 116.18C92.48 115.9 92.34 115.56 92.34 115.16C92.34 114.76 92.48 114.41 92.76 114.11C93.06 113.81 93.42 113.66 93.84 113.66C94.24 113.66 94.58 113.81 94.86 114.11C95.16 114.41 95.31 114.76 95.31 115.16C95.31 115.56 95.16 115.9 94.86 116.18C94.58 116.48 94.24 116.63 93.84 116.63ZM89.73 116.63C89.31 116.63 88.95 116.48 88.65 116.18C88.37 115.9 88.23 115.56 88.23 115.16C88.23 114.76 88.37 114.41 88.65 114.11C88.95 113.81 89.31 113.66 89.73 113.66C90.13 113.66 90.47 113.81 90.75 114.11C91.05 114.41 91.2 114.76 91.2 115.16C91.2 115.56 91.05 115.9 90.75 116.18C90.47 116.48 90.13 116.63 89.73 116.63Z" fill="white"/>
</svg>
